<?xml version="1.0" encoding="utf-8"?>
<!-- Generator: Adobe Illustrator 25.4.1, SVG Export Plug-In . SVG Version: 6.00 Build 0)  -->
<svg version="1.1" id="Layer_1" xmlns="http://www.w3.org/2000/svg" xmlns:xlink="http://www.w3.org/1999/xlink" x="0px" y="0px"
	 viewBox="0 0 2000 2000" style="enable-background:new 0 0 2000 2000;" xml:space="preserve">
<style type="text/css">
	.st0{fill:#2D2E83;}
	.st1{fill:#E4201B;}
</style>
<g id="XMLID_157_">
	<g id="XMLID_557_">
		<g id="XMLID_558_">
			<path id="XMLID_159_" class="st0" d="M801.12,669.5L801.12,669.5l-350.61,1.64c0,0,262.47-106.2,302.51-230.3
				c41.66-129.11-60.08-198.2-60.08-198.2s119.09,184.8-142.56,298.96C260.22,668.2,260.64,758.07,260.64,758.07l433.99-2.03
				C753.67,755.77,801.34,717.02,801.12,669.5z"/>
		</g>
	</g>
	<g id="XMLID_154_">
		<g id="XMLID_155_">
			<path id="XMLID_156_" class="st1" d="M151.62,331.97L151.62,331.97l350.61-1.64c0,0-262.47,106.2-302.51,230.3
				c-41.66,129.11,60.08,198.2,60.08,198.2s-119.09-184.8,142.56-298.96C692.52,333.27,692.1,243.4,692.1,243.4l-433.99,2.03
				C199.08,245.7,151.4,284.45,151.62,331.97z"/>
		</g>
	</g>
</g>
<g id="XMLID_00000052063634604502415460000003184915590826848914_">
	<g id="XMLID_00000019677663632138522130000010328540763044793736_">
		<g id="XMLID_00000093870424021165964210000010100810672555882417_">
			<path id="XMLID_00000036228463294346679970000014416374555028968364_" d="M1641.12,669.12L1641.12,669.12l-350.61,1.64
				c0,0,262.47-106.2,302.51-230.3c41.66-129.11-60.08-198.2-60.08-198.2s119.09,184.8-142.56,298.96
				c-290.17,126.6-289.75,216.47-289.75,216.47l433.99-2.03C1593.67,755.39,1641.34,716.64,1641.12,669.12z"/>
		</g>
	</g>
	<g id="XMLID_00000085951707539054714440000004964067459100117905_">
		<g id="XMLID_00000165217948597541309220000000740674885255208077_">
			<path id="XMLID_00000005249747028709852340000015926927889352897412_" d="M991.62,331.59L991.62,331.59l350.61-1.64
				c0,0-262.47,106.2-302.51,230.3c-41.66,129.11,60.08,198.2,60.08,198.2s-119.09-184.8,142.56-298.96
				c290.17-126.6,289.75-216.47,289.75-216.47l-433.99,2.03C1039.08,245.32,991.4,284.07,991.62,331.59z"/>
		</g>
	</g>
</g>
<path d="M845.36,1147.34c0,0-71.75,71.84-357.59,5.2c-285.84-66.64-296.28,159.48-296.28,159.48s21.2-73.06,342.86-11.63
	C856.01,1361.81,845.36,1147.34,845.36,1147.34z"/>
</svg>
