<svg id="Layer_1" data-name="Layer 1" xmlns="http://www.w3.org/2000/svg" viewBox="0 0 300 270"><defs><style>.cls-1{fill:#2d2e83;}.cls-2{fill:#e4201b;}</style></defs><path class="cls-1" d="M287.52,221.47h0l-148.47.69s111.15-45,128.1-97.52C284.79,70,241.71,40.7,241.71,40.7S292.14,119,181.34,167.31C58.47,220.92,58.64,259,58.64,259l183.79-.86C267.43,258,287.62,241.59,287.52,221.47Z"/><path class="cls-2" d="M12.48,78.53h0L161,77.84s-111.15,45-128.1,97.52C15.21,230,58.29,259.3,58.29,259.3S7.86,181,118.66,132.69C241.53,79.08,241.36,41,241.36,41l-183.79.86C32.57,42,12.38,58.41,12.48,78.53Z"/></svg>