<?xml version="1.0" encoding="utf-8"?>
<!-- Generator: Adobe Illustrator 25.4.1, SVG Export Plug-In . SVG Version: 6.00 Build 0)  -->
<svg version="1.1" id="Layer_1" xmlns="http://www.w3.org/2000/svg" xmlns:xlink="http://www.w3.org/1999/xlink" x="0px" y="0px"
	 viewBox="0 0 2000 2000" style="enable-background:new 0 0 2000 2000;" xml:space="preserve">
<style type="text/css">
	.st0{fill:#2D2E83;}
	.st1{fill:#E4201B;}
	.st2{fill:none;}
	.st3{fill:#DADADA;}
	.st4{fill:url(#SVGID_00000032636995460467998290000015485414686147892902_);}
	.st5{fill:url(#SVGID_00000072979430672861536400000014639023751823560849_);}
	.st6{fill:url(#SVGID_00000066492648346147287540000017023204227072106881_);}
	.st7{fill:url(#SVGID_00000167387880912986687740000008310613064199755910_);}
	.st8{fill:url(#SVGID_00000103953817170607869460000004406070423066721408_);}
	.st9{fill:url(#SVGID_00000073695929988747683030000009557495315051914154_);}
	.st10{fill:url(#SVGID_00000148624653774618431670000004699145885231223707_);}
</style>
<g id="XMLID_157_">
	<g id="XMLID_557_">
		<g id="XMLID_558_">
			<path id="XMLID_159_" class="st0" d="M801.12,669.5L801.12,669.5l-350.61,1.64c0,0,262.47-106.2,302.51-230.3
				c41.66-129.11-60.08-198.2-60.08-198.2s119.09,184.8-142.56,298.96C260.22,668.2,260.64,758.07,260.64,758.07l433.99-2.03
				C753.67,755.77,801.34,717.02,801.12,669.5z"/>
		</g>
	</g>
	<g id="XMLID_154_">
		<g id="XMLID_155_">
			<path id="XMLID_156_" class="st1" d="M151.62,331.97L151.62,331.97l350.61-1.64c0,0-262.47,106.2-302.51,230.3
				c-41.66,129.11,60.08,198.2,60.08,198.2s-119.09-184.8,142.56-298.96C692.52,333.27,692.1,243.4,692.1,243.4l-433.99,2.03
				C199.08,245.7,151.4,284.45,151.62,331.97z"/>
		</g>
	</g>
</g>
<g id="XMLID_00000052063634604502415460000003184915590826848914_">
	<g id="XMLID_00000019677663632138522130000010328540763044793736_">
		<g id="XMLID_00000093870424021165964210000010100810672555882417_">
			<path id="XMLID_00000036228463294346679970000014416374555028968364_" d="M1641.12,669.12L1641.12,669.12l-350.61,1.64
				c0,0,262.47-106.2,302.51-230.3c41.66-129.11-60.08-198.2-60.08-198.2s119.09,184.8-142.56,298.96
				c-290.17,126.6-289.75,216.47-289.75,216.47l433.99-2.03C1593.67,755.39,1641.34,716.64,1641.12,669.12z"/>
		</g>
	</g>
	<g id="XMLID_00000085951707539054714440000004964067459100117905_">
		<g id="XMLID_00000165217948597541309220000000740674885255208077_">
			<path id="XMLID_00000005249747028709852340000015926927889352897412_" d="M991.62,331.59L991.62,331.59l350.61-1.64
				c0,0-262.47,106.2-302.51,230.3c-41.66,129.11,60.08,198.2,60.08,198.2s-119.09-184.8,142.56-298.96
				c290.17-126.6,289.75-216.47,289.75-216.47l-433.99,2.03C1039.08,245.32,991.4,284.07,991.62,331.59z"/>
		</g>
	</g>
</g>
<path d="M845.36,1147.34c0,0-71.75,71.84-357.59,5.2c-285.84-66.64-296.28,159.48-296.28,159.48s21.2-73.06,342.86-11.63
	C856.01,1361.81,845.36,1147.34,845.36,1147.34z"/>
<path id="SVGID_x5F_1_x5F_" class="st2" d="M183.35,1287.39c0,0,21.45-79.12,345.57-14.46c310.65,61.98,305.34-150.02,305.34-150.02
	"/>
<text><textPath  xlink:href="#SVGID_x5F_1_x5F_" startOffset="30.835%">
<tspan  style="fill:#EFEFEF; font-family:'Anton-Regular'; font-size:80px;">  ZOB 2022</tspan></textPath>
</text>
<path class="st3" d="M1629.17,1147.34c0,0-71.75,71.84-357.59,5.2c-285.84-66.64-296.28,159.48-296.28,159.48
	s21.2-73.06,342.86-11.63C1639.82,1361.81,1629.17,1147.34,1629.17,1147.34z"/>
<path id="SVGID_x5F_00000048503657583034187000000003543766626061604509_x5F_" class="st2" d="M982.16,1288.39
	c0,0,21.45-79.12,345.57-14.46c310.65,61.98,305.34-150.02,305.34-150.02"/>
<text><textPath  xlink:href="#SVGID_x5F_00000048503657583034187000000003543766626061604509_x5F_" startOffset="30.835%">
<tspan  style="font-family:'Anton-Regular'; font-size:80px;">  ZOB 2022</tspan></textPath>
</text>
<path id="SVGID_x5F_00000123419849637640390200000008244325677812773800_x5F_" class="st2" d="M1083.63,732.67
	c0,0-28.39-76.91,273.2-212.11c289.06-129.58,161.83-299.25,161.83-299.25"/>
<text><textPath  xlink:href="#SVGID_x5F_00000123419849637640390200000008244325677812773800_x5F_" startOffset="30.835%">
<tspan  style="font-family:'Anton-Regular'; font-size:80px;">  ZOB 2022</tspan></textPath>
</text>
<g>
	<path id="SVGID_x5F_00000155141163868152098390000005884286936373104552_x5F_" class="st2" d="M243.71,742.75
		c0,0-28.39-76.91,273.2-212.11c289.06-129.58,161.83-299.25,161.83-299.25"/>
	<text>	<textPath  xlink:href="#SVGID_x5F_00000155141163868152098390000005884286936373104552_x5F_" startOffset="30.835%">
		<linearGradient id="SVGID_00000121969429698686839450000003876203017006325634_" gradientUnits="userSpaceOnUse" x1="-6030" y1="0" x2="-6029" y2="0">
			<stop  offset="0" style="stop-color:#F0A500"/>
			<stop  offset="1" style="stop-color:#E94D21"/>
		</linearGradient>
<tspan  style="fill:url(#SVGID_00000121969429698686839450000003876203017006325634_); font-family:'Anton-Regular'; font-size:80px;">  ZOB 2022</tspan>	</textPath>
</text>
	<g>
		
			<linearGradient id="SVGID_00000143581409441579393090000010930456347993848219_" gradientUnits="userSpaceOnUse" x1="463.8572" y1="517.0568" x2="619.555" y2="531.5355">
			<stop  offset="0" style="stop-color:#2D2E83"/>
			<stop  offset="0.014" style="stop-color:#342E81"/>
			<stop  offset="0.0716" style="stop-color:#4A2E78"/>
			<stop  offset="0.0862" style="stop-color:#522E74"/>
			<stop  offset="0.1534" style="stop-color:#702D64"/>
			<stop  offset="0.2267" style="stop-color:#892953"/>
			<stop  offset="0.3053" style="stop-color:#9B2545"/>
			<stop  offset="0.3909" style="stop-color:#A92038"/>
			<stop  offset="0.4864" style="stop-color:#B31D2E"/>
			<stop  offset="0.597" style="stop-color:#B91927"/>
			<stop  offset="0.7367" style="stop-color:#BD1723"/>
			<stop  offset="1" style="stop-color:#BE1622"/>
		</linearGradient>
		<path style="fill:url(#SVGID_00000143581409441579393090000010930456347993848219_);" d="M331.91,630.68l-6.87-10.44L317.52,573
			l-14.85,9.77l-6.96-10.57l29.99-19.72l6.61,10.05l7.49,47.81l16.03-10.55l6.95,10.57L331.91,630.68z"/>
		
			<linearGradient id="SVGID_00000140713941660527396670000005811402327029028263_" gradientUnits="userSpaceOnUse" x1="463.8572" y1="517.0568" x2="619.555" y2="531.5355">
			<stop  offset="0" style="stop-color:#2D2E83"/>
			<stop  offset="0.014" style="stop-color:#342E81"/>
			<stop  offset="0.0716" style="stop-color:#4A2E78"/>
			<stop  offset="0.0862" style="stop-color:#522E74"/>
			<stop  offset="0.1534" style="stop-color:#702D64"/>
			<stop  offset="0.2267" style="stop-color:#892953"/>
			<stop  offset="0.3053" style="stop-color:#9B2545"/>
			<stop  offset="0.3909" style="stop-color:#A92038"/>
			<stop  offset="0.4864" style="stop-color:#B31D2E"/>
			<stop  offset="0.597" style="stop-color:#B91927"/>
			<stop  offset="0.7367" style="stop-color:#BD1723"/>
			<stop  offset="1" style="stop-color:#BE1622"/>
		</linearGradient>
		<path style="fill:url(#SVGID_00000140713941660527396670000005811402327029028263_);" d="M385.51,597.68
			c-5.94,3.46-11.31,4.66-16.11,3.62c-4.81-1.04-8.79-4.28-11.95-9.7l-16.44-28.22c-2.96-5.09-3.66-9.85-2.08-14.29
			s5.36-8.41,11.35-11.9c5.99-3.49,11.31-4.82,15.95-4s8.44,3.78,11.41,8.86l16.44,28.22c3.16,5.42,4,10.48,2.54,15.18
			C395.14,590.15,391.44,594.22,385.51,597.68z M379.27,586.67c2.25-1.31,2.36-3.71,0.33-7.2l-16.89-29
			c-1.7-2.92-3.65-3.75-5.85-2.47c-2.47,1.44-2.84,3.66-1.1,6.65l16.87,28.96c1.08,1.85,2.13,3,3.15,3.48
			C376.81,587.56,377.97,587.42,379.27,586.67z"/>
		
			<linearGradient id="SVGID_00000036247471613175315140000004684251480334936745_" gradientUnits="userSpaceOnUse" x1="463.8572" y1="517.0568" x2="619.555" y2="531.5355">
			<stop  offset="0" style="stop-color:#2D2E83"/>
			<stop  offset="0.014" style="stop-color:#342E81"/>
			<stop  offset="0.0716" style="stop-color:#4A2E78"/>
			<stop  offset="0.0862" style="stop-color:#522E74"/>
			<stop  offset="0.1534" style="stop-color:#702D64"/>
			<stop  offset="0.2267" style="stop-color:#892953"/>
			<stop  offset="0.3053" style="stop-color:#9B2545"/>
			<stop  offset="0.3909" style="stop-color:#A92038"/>
			<stop  offset="0.4864" style="stop-color:#B31D2E"/>
			<stop  offset="0.597" style="stop-color:#B91927"/>
			<stop  offset="0.7367" style="stop-color:#BD1723"/>
			<stop  offset="1" style="stop-color:#BE1622"/>
		</linearGradient>
		<path style="fill:url(#SVGID_00000036247471613175315140000004684251480334936745_);" d="M409.05,583.49l-31.99-60.85l20.61-10.84
			c5.53-2.91,10.12-3.95,13.78-3.12c3.65,0.83,6.78,3.72,9.39,8.68l1.4,2.66c1.5,2.86,2.08,5.51,1.73,7.96
			c-0.35,2.45-1.69,4.64-4.02,6.57c3.79-1.11,6.94-0.7,9.45,1.23c2.51,1.93,4.72,4.73,6.65,8.4c2.07,3.94,3.42,7.63,4.05,11.07
			c0.63,3.44,0.16,6.61-1.4,9.52c-1.56,2.91-4.57,5.54-9.04,7.89L409.05,583.49z M403.97,537.74l3.11-1.64
			c1.41-0.74,2.09-1.66,2.03-2.75c-0.06-1.09-0.41-2.24-1.05-3.46l-3.22-6.12c-1.03-1.96-2.62-2.37-4.79-1.24l-3.2,1.68
			L403.97,537.74z M419.79,564.16c3.95-2.08,5.13-4.61,3.56-7.61l-4-7.61c-0.91-1.73-1.95-2.92-3.12-3.59
			c-1.18-0.66-2.66-0.52-4.44,0.42l-2.81,1.48l9.27,17.63C418.9,564.6,419.42,564.35,419.79,564.16z"/>
		
			<linearGradient id="SVGID_00000044868818441573529750000009696417625138957705_" gradientUnits="userSpaceOnUse" x1="463.8572" y1="517.0568" x2="619.555" y2="531.5355">
			<stop  offset="0" style="stop-color:#2D2E83"/>
			<stop  offset="0.014" style="stop-color:#342E81"/>
			<stop  offset="0.0716" style="stop-color:#4A2E78"/>
			<stop  offset="0.0862" style="stop-color:#522E74"/>
			<stop  offset="0.1534" style="stop-color:#702D64"/>
			<stop  offset="0.2267" style="stop-color:#892953"/>
			<stop  offset="0.3053" style="stop-color:#9B2545"/>
			<stop  offset="0.3909" style="stop-color:#A92038"/>
			<stop  offset="0.4864" style="stop-color:#B31D2E"/>
			<stop  offset="0.597" style="stop-color:#B91927"/>
			<stop  offset="0.7367" style="stop-color:#BD1723"/>
			<stop  offset="1" style="stop-color:#BE1622"/>
		</linearGradient>
		<path style="fill:url(#SVGID_00000044868818441573529750000009696417625138957705_);" d="M471.19,551.67l-1.39-2.97
			c-1.44-3.09-2.14-6.15-2.1-9.17c0.04-3.02,0.52-6.03,1.42-9.02c0.9-2.99,1.93-5.99,3.08-9c1.11-2.93,2.1-5.87,2.97-8.82
			s1.32-5.92,1.34-8.9c0.03-2.99-0.67-6-2.09-9.05c-0.68-1.46-1.54-2.59-2.58-3.39c-1.04-0.79-2.41-0.79-4.12,0
			c-2.6,1.21-3.03,3.67-1.3,7.38l3.55,7.61l-16.37,7.64c-0.28-0.53-0.61-1.12-0.97-1.79c-0.36-0.66-0.69-1.31-0.99-1.95
			c-2.09-4.48-3.28-8.56-3.56-12.24c-0.28-3.68,0.7-7.03,2.92-10.07c2.23-3.04,6.06-5.82,11.49-8.35c6.46-3.01,12.16-3.91,17.1-2.68
			c4.94,1.23,8.66,4.54,11.17,9.92c1.71,3.66,2.61,7.14,2.71,10.44c0.1,3.3-0.29,6.53-1.19,9.69c-0.89,3.16-1.99,6.41-3.27,9.74
			c-0.91,2.35-1.76,4.72-2.54,7.09c-0.78,2.37-1.32,4.78-1.62,7.22l21.24-9.91l5.48,11.75L471.19,551.67z"/>
		
			<linearGradient id="SVGID_00000059280511647005636350000014433368879881467560_" gradientUnits="userSpaceOnUse" x1="463.8572" y1="517.0568" x2="619.555" y2="531.5355">
			<stop  offset="0" style="stop-color:#2D2E83"/>
			<stop  offset="0.014" style="stop-color:#342E81"/>
			<stop  offset="0.0716" style="stop-color:#4A2E78"/>
			<stop  offset="0.0862" style="stop-color:#522E74"/>
			<stop  offset="0.1534" style="stop-color:#702D64"/>
			<stop  offset="0.2267" style="stop-color:#892953"/>
			<stop  offset="0.3053" style="stop-color:#9B2545"/>
			<stop  offset="0.3909" style="stop-color:#A92038"/>
			<stop  offset="0.4864" style="stop-color:#B31D2E"/>
			<stop  offset="0.597" style="stop-color:#B91927"/>
			<stop  offset="0.7367" style="stop-color:#BD1723"/>
			<stop  offset="1" style="stop-color:#BE1622"/>
		</linearGradient>
		<path style="fill:url(#SVGID_00000059280511647005636350000014433368879881467560_);" d="M536.74,522.02
			c-6.53,3.18-12.28,4.17-17.26,2.97c-4.98-1.2-8.81-4.55-11.49-10.05l-13.57-27.89c-2.83-5.81-3.3-11.08-1.43-15.83
			s6.25-8.8,13.12-12.14c6.91-3.36,12.8-4.31,17.67-2.85c4.88,1.47,8.73,5.1,11.55,10.91l13.57,27.89
			c2.68,5.5,2.96,10.58,0.84,15.23C547.63,514.91,543.29,518.83,536.74,522.02z M531.2,510.64c1.2-0.58,1.93-1.47,2.18-2.67
			c0.25-1.19,0.12-2.33-0.41-3.41l-14.85-30.52c-0.71-1.45-1.52-2.63-2.45-3.52c-0.92-0.9-2.26-0.92-4.02-0.06
			c-1.76,0.85-2.57,1.92-2.43,3.2c0.13,1.28,0.55,2.65,1.26,4.1l14.85,30.52c0.53,1.08,1.34,1.88,2.45,2.41
			C528.89,511.23,530.03,511.21,531.2,510.64z"/>
		
			<linearGradient id="SVGID_00000036971952796259884650000017943370303900717246_" gradientUnits="userSpaceOnUse" x1="463.8572" y1="517.0568" x2="619.555" y2="531.5355">
			<stop  offset="0" style="stop-color:#2D2E83"/>
			<stop  offset="0.014" style="stop-color:#342E81"/>
			<stop  offset="0.0716" style="stop-color:#4A2E78"/>
			<stop  offset="0.0862" style="stop-color:#522E74"/>
			<stop  offset="0.1534" style="stop-color:#702D64"/>
			<stop  offset="0.2267" style="stop-color:#892953"/>
			<stop  offset="0.3053" style="stop-color:#9B2545"/>
			<stop  offset="0.3909" style="stop-color:#A92038"/>
			<stop  offset="0.4864" style="stop-color:#B31D2E"/>
			<stop  offset="0.597" style="stop-color:#B91927"/>
			<stop  offset="0.7367" style="stop-color:#BD1723"/>
			<stop  offset="1" style="stop-color:#BE1622"/>
		</linearGradient>
		<path style="fill:url(#SVGID_00000036971952796259884650000017943370303900717246_);" d="M564.5,507.45l-1.71-2.8
			c-1.78-2.91-2.81-5.87-3.11-8.88s-0.16-6.05,0.41-9.13s1.25-6.17,2.05-9.29c0.78-3.04,1.43-6.07,1.97-9.1
			c0.54-3.03,0.65-6.03,0.34-9c-0.31-2.97-1.34-5.89-3.09-8.76c-0.84-1.38-1.82-2.4-2.94-3.08c-1.12-0.67-2.48-0.52-4.09,0.46
			c-2.45,1.49-2.6,3.98-0.47,7.47l4.38,7.17l-15.42,9.42c-0.34-0.49-0.73-1.05-1.16-1.67c-0.43-0.62-0.84-1.23-1.2-1.83
			c-2.58-4.22-4.21-8.15-4.9-11.77c-0.69-3.62-0.09-7.07,1.78-10.33c1.88-3.27,5.37-6.46,10.48-9.58
			c6.08-3.72,11.65-5.24,16.69-4.56c5.05,0.67,9.12,3.54,12.21,8.61c2.1,3.44,3.39,6.8,3.86,10.07c0.47,3.27,0.44,6.52-0.1,9.77
			s-1.26,6.59-2.16,10.04c-0.65,2.44-1.22,4.88-1.73,7.33c-0.51,2.45-0.78,4.9-0.8,7.35l20-12.21l6.76,11.07L564.5,507.45z"/>
		
			<linearGradient id="SVGID_00000042711621761185750410000016202138209855129242_" gradientUnits="userSpaceOnUse" x1="463.8572" y1="517.0568" x2="619.555" y2="531.5355">
			<stop  offset="0" style="stop-color:#2D2E83"/>
			<stop  offset="0.014" style="stop-color:#342E81"/>
			<stop  offset="0.0716" style="stop-color:#4A2E78"/>
			<stop  offset="0.0862" style="stop-color:#522E74"/>
			<stop  offset="0.1534" style="stop-color:#702D64"/>
			<stop  offset="0.2267" style="stop-color:#892953"/>
			<stop  offset="0.3053" style="stop-color:#9B2545"/>
			<stop  offset="0.3909" style="stop-color:#A92038"/>
			<stop  offset="0.4864" style="stop-color:#B31D2E"/>
			<stop  offset="0.597" style="stop-color:#B91927"/>
			<stop  offset="0.7367" style="stop-color:#BD1723"/>
			<stop  offset="1" style="stop-color:#BE1622"/>
		</linearGradient>
		<path style="fill:url(#SVGID_00000042711621761185750410000016202138209855129242_);" d="M610.84,478.5l-2.08-2.54
			c-2.16-2.64-3.59-5.43-4.3-8.37c-0.7-2.94-0.99-5.97-0.85-9.1c0.14-3.12,0.39-6.28,0.76-9.48c0.35-3.12,0.59-6.21,0.7-9.28
			c0.11-3.07-0.18-6.06-0.9-8.96c-0.71-2.9-2.13-5.65-4.26-8.25c-1.02-1.25-2.13-2.13-3.33-2.65c-1.2-0.51-2.53-0.17-3.99,1.02
			c-2.22,1.81-2.03,4.3,0.56,7.47l5.32,6.5l-13.98,11.44c-0.4-0.44-0.87-0.94-1.38-1.49c-0.52-0.55-1-1.1-1.44-1.65
			c-3.13-3.83-5.29-7.49-6.47-10.99c-1.18-3.49-1.06-6.99,0.35-10.48c1.41-3.49,4.43-7.14,9.07-10.93
			c5.52-4.52,10.82-6.79,15.91-6.81c5.09-0.03,9.51,2.26,13.27,6.85c2.56,3.12,4.29,6.27,5.21,9.44c0.91,3.17,1.33,6.4,1.24,9.69
			c-0.09,3.29-0.34,6.7-0.77,10.24c-0.31,2.51-0.54,5-0.71,7.5c-0.17,2.49-0.09,4.96,0.22,7.4l18.14-14.84l8.21,10.04L610.84,478.5z
			"/>
	</g>
</g>
<rect x="-93.79" y="963.34" class="st2" width="2.26" height="0"/>
<rect x="552.23" y="952.04" class="st2" width="2.26" height="0"/>
<rect x="1053.69" y="1096.61" class="st2" width="2.26" height="0"/>
<rect x="845.82" y="877.33" class="st2" width="2.26" height="0"/>
</svg>
